# xmcd
#
# Track frame offsets:
#	150
#	15249
#	29920
#	44177
#	58468
#	71410
#	80560
#	92632
#	105679
#	119739
#	130853
#	145104
#
# Disc length: 2116 seconds
#
# Revision: 0
# Processed by: cddbd v1.5.2PL0 Copyright (c) Steve Scherf et al.
# Submitted via: EasyCDDAExtractor 16.0.8.2
#
DISCID=b308420c
DTITLE=Ζαγοραίος Σπύρος - Τα ζαγοραίϊκα ή Νο 11, LP-Σ. Ζαγοραίος
DYEAR=1900
DGENRE=Λαϊκή
TTITLE0=Λέγε μου [Μ. Μπακάλης]
TTITLE1=Μόνος στη ζωή [Σ. Ζαγοραίος-Κ. Βίρβος]
TTITLE2=Ο ερωτιάρης [Σ. Ζαγοραίος]
TTITLE3=Ο πολιτσμάνος [Κ. Νίτσος-Μ. Μπακάλης]
TTITLE4=Μιά ιστορία [Σ. Ζαγοραίος-Δ. Γκούτης]
TTITLE5=Το πρόβλημα το λύσαμε [Σ. Ζαγοραίος]
TTITLE6=Η δική μας ιστορία [Σ. Ζαγοραίος]
TTITLE7=Άργησες και υποφέρω [Σ. Ζαγοραίος]
TTITLE8=Ο έρωτας κι ο τζόγος [Σ. Ζαγοραίος]
TTITLE9=Αν σε διαβολέψανε [Σ. Ζαγοραίος]
TTITLE10=Στο μεγάλο κόλπο [Σ. Ζαγοραίος]
TTITLE11=Να κρεμάσουν τις γυναίκες [Σ. Ζαγοραίος]
EXTD=
EXTT0=
EXTT1=
EXTT2=
EXTT3=
EXTT4=
EXTT5=
EXTT6=
EXTT7=
EXTT8=
EXTT9=
EXTT10=
EXTT11=
PLAYORDER=
